<?xml version="1.0" standalone="no"?>
<!DOCTYPE svg PUBLIC "-//W3C//DTD SVG 20010904//EN"
 "http://www.w3.org/TR/2001/REC-SVG-20010904/DTD/svg10.dtd">
<svg version="1.0" xmlns="http://www.w3.org/2000/svg"
 width="401.000000pt" height="221.000000pt" viewBox="0 0 401.000000 221.000000"
 preserveAspectRatio="xMidYMid meet">
<metadata>
Created by potrace 1.15, written by Peter Selinger 2001-2017
</metadata>
<g transform="translate(0.000000,221.000000) scale(0.100000,-0.100000)"
fill="#000000" stroke="none">
<path d="M30 1115 l0 -1075 375 0 c228 0 375 4 375 9 0 6 -139 9 -357 8 -283
-2 -359 0 -369 11 -11 11 -13 205 -13 1045 1 567 3 1037 6 1044 4 9 27 13 73
13 38 0 72 5 75 10 4 6 -25 10 -79 10 l-86 0 0 -1075z"/>
<path d="M201 2158 c-6 -17 -9 -34 -6 -37 8 -8 25 20 25 42 0 9 5 17 10 17 6
0 10 -9 10 -21 0 -15 4 -19 16 -15 9 3 27 6 41 6 18 0 24 4 20 14 -3 8 -1 17
6 20 7 2 -16 5 -50 5 -60 1 -61 0 -72 -31z m84 12 c-3 -5 -10 -10 -16 -10 -5
0 -9 5 -9 10 0 6 7 10 16 10 8 0 12 -4 9 -10z"/>
<path d="M653 2103 c5 -55 16 -100 28 -121 24 -42 24 -42 -11 -32 -16 5 -57 5
-89 0 -33 -5 -68 -6 -78 -4 -16 5 -18 -5 -21 -100 -2 -71 1 -106 9 -111 8 -6
10 3 5 31 -7 53 6 156 22 162 7 2 12 -5 12 -15 0 -10 33 -52 73 -93 40 -41 82
-89 92 -107 10 -18 25 -35 33 -38 28 -11 -35 81 -110 159 -43 45 -78 84 -78
88 0 10 124 21 149 13 12 -3 40 -26 62 -50 22 -24 54 -49 70 -55 l29 -13 -34
-31 c-22 -20 -40 -50 -51 -84 -9 -28 -21 -50 -25 -47 -5 3 -6 -12 -3 -32 l6
-38 -25 23 c-31 28 -38 28 -38 -2 0 -34 -18 -42 -29 -14 -15 37 -81 95 -141
122 -32 15 -89 29 -135 35 -44 5 -93 14 -108 20 -40 16 -44 14 -45 -16 0 -16
-11 -59 -23 -98 -26 -84 -23 -197 6 -257 l18 -37 -44 -40 -44 -40 36 -1 c50 0
173 -63 202 -103 13 -18 32 -53 41 -79 10 -26 31 -60 47 -75 32 -31 36 -43 14
-43 -29 0 -63 -31 -103 -93 -22 -34 -43 -72 -46 -83 -6 -21 -3 -22 71 -26 83
-4 156 -30 203 -73 14 -12 54 -42 90 -67 36 -25 85 -64 108 -86 24 -22 59 -48
77 -57 19 -8 37 -20 40 -25 3 -6 19 -10 35 -10 16 0 65 -9 110 -19 151 -36
259 -46 357 -31 48 7 96 17 107 22 15 8 26 1 63 -41 62 -71 144 -109 248 -117
71 -5 88 -3 149 20 66 25 117 57 158 98 17 17 19 16 58 -25 108 -118 268 -139
540 -73 58 14 126 29 152 32 44 6 46 8 35 28 -7 11 -18 29 -26 39 -22 26 -9
29 55 12 96 -25 255 3 304 54 14 15 53 56 86 92 72 76 95 88 181 96 34 3 63 9
63 13 0 14 -107 120 -130 128 l-25 9 33 17 c32 17 122 127 122 150 0 22 90
136 132 166 22 17 52 30 65 30 12 0 23 2 23 5 0 17 -95 93 -147 117 -50 24
-75 29 -140 30 -56 1 -90 -4 -113 -15 -41 -21 -37 -22 -55 13 -22 42 -19 53
20 97 76 84 97 103 135 119 22 10 43 26 46 37 4 13 9 16 16 9 6 -6 6 -17 -1
-30 -6 -11 -11 -48 -11 -82 0 -36 -6 -73 -16 -91 -20 -40 -13 -59 10 -24 13
19 18 49 19 102 2 68 4 77 30 98 32 28 34 35 9 35 -10 0 -22 4 -28 9 -9 8 -76
27 -147 41 -21 4 -55 4 -75 0 -20 -5 -55 -11 -76 -13 -21 -3 -51 -15 -65 -26
-14 -12 -34 -24 -43 -28 -10 -3 -18 -9 -18 -14 0 -5 7 -6 15 -3 11 5 15 -1 15
-19 0 -20 -4 -23 -24 -20 -19 4 -25 0 -30 -22 -4 -14 -35 -69 -69 -120 -34
-52 -75 -116 -92 -143 -28 -47 -33 -50 -80 -56 -27 -3 -76 -6 -107 -6 -32 0
-58 -4 -58 -10 0 -12 98 -12 160 0 25 4 46 7 48 5 2 -1 -4 -20 -12 -40 -9 -20
-17 -50 -18 -66 -3 -38 -17 -37 -69 7 -23 19 -60 44 -81 55 -21 11 -38 25 -38
31 0 6 -3 9 -6 5 -11 -10 11 -36 56 -67 139 -94 151 -106 192 -188 28 -55 30
-68 24 -119 -4 -32 -13 -68 -21 -80 -8 -12 -15 -29 -15 -36 0 -8 -8 -21 -17
-28 -15 -12 -16 -12 -9 1 5 8 -18 -10 -50 -41 -123 -118 -291 -166 -489 -140
-65 8 -166 39 -183 56 -2 2 26 34 63 71 87 89 100 118 100 224 0 72 -4 92 -24
128 -19 33 -22 45 -13 54 21 21 13 32 -9 12 -19 -17 -22 -17 -32 -3 -7 9 -22
21 -35 28 l-22 12 35 46 c20 26 34 51 32 57 -2 6 -41 14 -88 18 -95 7 -283 8
-256 1 9 -2 17 -12 17 -22 0 -12 29 -28 108 -59 59 -23 113 -42 120 -42 7 0
19 -6 26 -12 7 -7 30 -26 50 -43 20 -16 46 -50 57 -75 26 -57 27 -155 3 -201
-24 -48 -109 -143 -153 -172 -44 -30 -130 -57 -178 -57 -18 0 -33 -5 -33 -11
0 -14 75 -6 127 13 37 14 39 13 48 -24 6 -23 2 -30 -27 -48 -18 -11 -44 -20
-58 -21 l-25 -1 25 -7 c23 -6 19 -10 -43 -41 -148 -73 -311 -41 -421 81 -32
37 -41 41 -69 36 -186 -34 -234 -35 -383 -6 -60 11 -131 25 -158 29 -61 11
-65 15 -38 40 12 12 22 27 22 35 0 7 12 28 27 45 30 36 35 36 148 0 60 -20 93
-23 228 -24 154 -1 157 -1 157 -23 0 -18 -9 -23 -50 -32 -74 -16 -142 -14
-258 9 -56 11 -121 20 -143 20 -47 0 -125 -30 -95 -37 10 -3 23 0 29 6 16 16
131 13 205 -4 95 -23 190 -27 257 -13 52 11 62 11 75 -2 8 -9 12 -11 9 -5 -10
17 -18 85 -12 101 3 7 9 11 14 8 15 -9 10 2 -14 29 -12 15 -33 53 -45 85 -21
52 -23 66 -15 120 5 34 6 59 1 56 -4 -3 -5 2 -2 10 3 9 9 14 13 12 4 -3 8 5 8
16 4 45 93 106 238 164 45 18 81 39 83 47 2 9 11 18 20 20 9 2 -10 7 -43 11
-33 4 -90 11 -127 17 -106 15 -118 13 -118 -16 0 -14 5 -25 10 -25 16 0 72
-60 68 -72 -2 -6 -22 -20 -44 -32 -101 -54 -129 -106 -128 -236 0 -74 4 -91
28 -132 15 -26 32 -50 37 -53 25 -16 -1 -24 -106 -30 -122 -8 -248 5 -310 31
-57 23 -110 19 -134 -12 -12 -15 -21 -32 -21 -38 0 -6 -9 -26 -20 -44 l-20
-33 -32 18 c-33 19 -45 28 -113 89 -130 117 -245 183 -345 198 -73 11 -78 17
-49 71 29 57 81 105 113 105 13 0 31 -9 41 -20 10 -11 26 -22 36 -25 31 -10
21 -22 -24 -29 -50 -8 -136 -46 -156 -69 -21 -26 2 -21 56 12 27 16 72 34 101
41 59 14 66 29 25 63 -53 42 -113 109 -113 123 0 8 -3 14 -8 14 -4 0 -13 9
-20 21 -8 12 -9 18 -3 15 5 -4 -2 14 -16 39 -30 55 -105 109 -175 126 -73 19
-54 34 43 33 72 -1 93 -5 149 -32 36 -17 76 -41 88 -52 13 -12 28 -20 34 -18
18 6 -28 44 -93 77 -66 34 -149 52 -206 45 -21 -2 -32 -2 -25 2 6 3 9 11 6 16
-4 6 -2 8 3 5 6 -4 31 2 56 13 24 11 75 24 113 29 l69 8 -65 1 c-39 1 -86 -6
-118 -17 l-53 -18 -16 23 c-8 13 -17 57 -20 104 -5 64 -1 97 17 166 23 83 24
86 49 80 14 -3 62 -10 106 -16 108 -15 193 -56 240 -117 33 -43 45 -86 27 -97
-5 -3 -17 -32 -27 -66 -14 -45 -22 -59 -34 -56 -9 3 -36 7 -61 10 -43 5 -44 5
-10 -5 71 -20 80 -29 81 -78 l1 -46 9 55 c5 30 22 87 37 125 15 39 27 75 27
80 2 26 29 52 51 47 15 -3 25 1 28 9 26 84 62 160 88 188 31 34 32 34 102 28
66 -6 156 2 216 19 l25 7 -22 -19 c-25 -22 -113 -152 -113 -168 -1 -6 -19 -29
-40 -51 -22 -22 -40 -48 -40 -58 0 -32 20 -57 45 -57 18 0 25 -7 30 -30 4 -16
10 -30 13 -30 4 0 7 -15 7 -32 0 -31 2 -33 35 -33 29 0 36 4 38 23 4 29 42 30
68 1 13 -14 28 -20 54 -18 19 2 46 -3 60 -11 42 -23 115 -16 155 14 42 33 74
126 43 126 -8 0 -13 -14 -14 -35 -2 -84 -122 -138 -180 -80 -22 23 -27 24 -40
10 -9 -8 -22 -15 -29 -15 -19 0 -45 28 -46 48 0 11 -2 12 -6 5 -8 -21 -64 -16
-70 6 -4 16 -8 18 -23 9 -9 -6 -25 -8 -35 -4 -14 5 -16 14 -11 48 7 40 6 41
-12 25 -24 -22 -48 -22 -60 -1 -14 26 -3 56 19 51 11 -3 22 0 26 5 3 7 1 8 -5
4 -7 -4 -12 -1 -12 8 0 8 9 18 20 21 11 3 20 14 20 23 0 21 98 171 148 227 42
47 33 46 197 16 33 -6 87 -10 120 -10 59 2 59 2 -21 10 -83 8 -161 25 -179 39
-5 4 -36 13 -67 19 -31 7 -74 24 -95 39 -21 15 -50 33 -65 39 -41 18 -104 79
-132 128 -14 24 -26 45 -26 47 0 2 199 2 442 0 397 -2 444 -4 461 -19 10 -10
44 -20 82 -24 78 -8 121 -35 127 -81 3 -17 3 -39 1 -48 -6 -22 -64 -51 -173
-86 -12 -4 -19 14 -33 88 -9 52 -17 105 -17 118 0 17 -3 21 -11 13 -9 -9 3
-104 27 -197 5 -22 2 -25 -28 -29 l-33 -4 38 -1 37 -2 -20 -37 c-22 -41 -26
-84 -10 -113 8 -15 5 -19 -15 -24 -27 -7 -45 -50 -27 -68 18 -18 66 -5 72 21
5 22 7 22 50 -23 25 -25 48 -46 51 -46 4 0 4 29 2 64 -9 110 46 296 83 282 8
-3 11 0 7 10 -3 7 0 14 6 14 23 0 12 78 -19 127 -33 52 -39 79 -14 69 9 -3 33
-6 54 -6 31 0 39 -4 44 -23 11 -46 64 -104 117 -131 59 -29 134 -34 201 -14
47 14 123 87 140 135 l12 33 292 0 c161 0 300 3 308 6 12 4 15 2 10 -9 -7 -18
-107 -51 -134 -44 -16 4 -20 0 -20 -18 0 -55 204 -104 298 -71 49 18 132 91
132 117 0 10 8 23 18 28 11 7 -437 10 -1413 11 l-1431 0 9 -87z m1917 68 c0
-14 -50 -82 -83 -113 -39 -36 -98 -58 -154 -58 -37 0 -122 41 -149 71 -22 24
-64 89 -64 99 0 3 101 5 225 5 124 0 225 -2 225 -4z m-1644 -36 c25 -54 90
-121 147 -153 47 -26 138 -75 145 -78 1 -1 -10 -15 -26 -31 -23 -25 -41 -33
-102 -43 -82 -14 -216 -8 -252 11 -43 23 -109 93 -133 141 -16 31 -27 76 -31
119 l-7 69 121 0 121 0 17 -35z m1062 17 c3 -9 -10 -11 -55 -6 -87 10 -100 24
-19 21 45 -1 71 -6 74 -15z m1463 0 c-19 -36 -91 -91 -133 -103 -24 -6 -66 -8
-95 -5 -61 7 -147 37 -145 50 1 6 25 16 54 23 29 8 62 23 73 33 17 18 34 20
138 20 111 0 117 -1 108 -18z m-1493 -289 c-11 -38 -20 -100 -21 -139 l-2 -71
-45 39 c-25 22 -48 47 -52 56 -24 59 10 131 75 161 65 30 66 28 45 -46z m-118
-167 c0 -18 -27 -39 -40 -31 -5 3 -10 15 -10 26 0 14 7 19 25 19 15 0 25 -6
25 -14z m1658 -101 c29 -9 52 -19 52 -23 0 -4 -28 -20 -62 -37 -39 -19 -71
-42 -84 -63 -12 -18 -36 -49 -54 -68 l-31 -36 -39 43 c-22 24 -40 50 -40 57 0
6 -3 12 -8 12 -4 0 -13 14 -21 31 -12 28 -12 33 8 52 12 12 36 27 54 34 46 17
165 16 225 -2z m-303 -253 c0 -75 -4 -149 -9 -164 -5 -19 -5 -28 3 -28 6 0 10
3 9 8 -1 4 4 20 10 35 15 36 16 232 1 259 -6 11 -8 22 -6 25 3 3 12 -8 20 -24
8 -15 29 -44 46 -63 17 -19 48 -69 69 -110 35 -70 37 -80 36 -165 -1 -155 -40
-250 -143 -348 -63 -60 -179 -123 -248 -134 l-34 -6 20 35 c51 86 46 196 -15
287 -39 60 -42 88 -14 150 11 24 20 47 20 51 0 11 112 191 157 253 19 26 36
53 37 60 4 26 18 39 30 27 7 -7 11 -60 11 -148z m-2080 58 c8 -14 -13 -40 -32
-40 -7 0 -16 7 -20 16 -10 26 38 47 52 24z m2532 -131 c26 -13 59 -31 73 -42
l25 -19 -30 9 c-89 24 -236 -7 -281 -61 -35 -40 -16 -45 26 -6 44 42 126 64
212 58 37 -3 75 -11 83 -18 13 -11 9 -15 -25 -32 -41 -21 -116 -96 -137 -139
-6 -13 -19 -40 -27 -59 -30 -66 -100 -135 -161 -158 -57 -22 -96 -28 -108 -16
-3 4 5 21 19 39 49 65 75 150 80 263 3 57 0 119 -5 137 -11 39 -4 48 49 64 51
15 151 5 207 -20z m-1929 -111 c56 -6 102 -14 102 -17 0 -3 -33 -19 -73 -36
-39 -16 -75 -31 -79 -33 -5 -2 -8 3 -8 11 0 16 -64 77 -80 77 -6 0 -10 5 -10
11 0 7 9 9 23 5 12 -4 68 -12 125 -18z m423 -19 c74 -1 138 -4 142 -6 4 -3 -5
-17 -20 -32 -15 -16 -33 -36 -38 -45 -10 -18 -33 -11 -232 71 -18 7 -16 26 1
20 8 -3 74 -6 147 -8z m1365 -413 c24 -27 41 -53 38 -58 -3 -4 -19 -8 -36 -8
-71 0 -107 -21 -191 -110 -93 -99 -117 -114 -211 -131 -53 -10 -83 -10 -138
-1 -38 7 -74 10 -78 7 -5 -3 -18 3 -30 15 -18 18 -18 24 3 21 4 0 7 3 7 9 0 5
-8 11 -17 12 -10 1 -25 2 -33 4 -8 1 -26 2 -40 3 -22 1 -23 3 -7 12 9 5 21 7
26 4 10 -5 70 42 101 78 8 10 50 26 92 37 96 24 169 61 229 114 l46 42 98 -1
97 0 44 -49z m-1308 -233 c46 -46 91 -57 247 -61 134 -3 160 -1 242 21 88 23
94 23 120 7 32 -19 58 -48 51 -55 -3 -3 -28 0 -57 7 -40 9 -80 9 -179 0 -241
-23 -370 -8 -412 46 -19 23 -20 23 -20 4 0 -65 187 -98 405 -70 112 14 173 13
220 -2 31 -10 39 -10 46 1 8 11 12 10 24 -6 21 -27 14 -39 -26 -46 -19 -3 -88
-19 -154 -34 -145 -34 -281 -38 -362 -11 -96 32 -221 165 -190 204 13 16 24
15 45 -5z"/>
<path d="M3391 736 c2 -2 27 -6 54 -9 34 -4 42 -3 25 3 -25 8 -87 13 -79 6z"/>
<path d="M3348 723 c6 -2 18 -2 25 0 6 3 1 5 -13 5 -14 0 -19 -2 -12 -5z"/>
<path d="M3308 713 c7 -3 16 -2 19 1 4 3 -2 6 -13 5 -11 0 -14 -3 -6 -6z"/>
<path d="M3209 663 c-13 -16 -12 -17 4 -4 9 7 17 15 17 17 0 8 -8 3 -21 -13z"/>
<path d="M2980 500 c-8 -5 -12 -12 -9 -15 4 -3 12 1 19 10 14 17 11 19 -10 5z"/>
<path d="M3598 2183 c50 -2 134 -2 185 0 50 1 9 3 -93 3 -102 0 -143 -2 -92
-3z"/>
<path d="M3955 2180 c3 -5 8 -10 11 -10 2 0 4 5 4 10 0 6 -5 10 -11 10 -5 0
-7 -4 -4 -10z"/>
<path d="M3026 2009 c-10 -36 -16 -76 -14 -90 2 -16 10 2 22 52 23 95 16 128
-8 38z"/>
<path d="M3962 1970 c0 -14 2 -19 5 -12 2 6 2 18 0 25 -3 6 -5 1 -5 -13z"/>
<path d="M3065 1913 c-48 -13 -31 -21 42 -20 80 1 148 -20 235 -73 l33 -20
-78 0 c-66 0 -86 -4 -135 -29 -31 -16 -68 -41 -81 -55 -24 -26 -51 -35 -51
-17 0 10 -126 91 -141 91 -5 0 -26 -8 -47 -19 -20 -10 -55 -22 -77 -26 -35 -6
-37 -8 -18 -16 22 -8 40 -49 29 -67 -3 -5 5 -14 19 -20 29 -13 59 -57 50 -72
-3 -6 -11 -7 -17 -4 -7 4 -8 2 -4 -4 4 -7 16 -12 27 -12 16 0 19 -5 14 -22 -4
-15 -3 -18 2 -11 7 10 13 10 27 0 26 -19 12 -67 -19 -67 -17 0 -25 -7 -27 -22
-3 -23 -48 -40 -48 -19 0 24 -19 9 -22 -16 -4 -38 -44 -45 -57 -11 -7 17 -10
19 -10 6 -1 -28 -2 -32 -12 -50 -11 -20 -49 -24 -49 -6 0 7 -11 1 -25 -14 -36
-39 -71 -45 -114 -22 -26 14 -37 27 -39 47 -3 23 -6 26 -18 16 -18 -15 -44 4
-44 32 0 11 -4 19 -10 19 -5 0 -7 -7 -3 -16 4 -12 1 -15 -13 -12 -10 2 -18 9
-17 16 2 6 -4 9 -12 6 -8 -3 -24 5 -37 19 -28 30 -83 195 -103 308 -18 100
-18 102 -5 94 22 -14 8 4 -15 19 -24 16 -25 16 -16 -1 5 -10 14 -57 21 -104 6
-48 22 -120 35 -160 30 -87 30 -89 6 -89 -21 0 -31 -19 -31 -56 0 -21 5 -24
35 -24 19 0 35 4 35 10 0 5 11 -2 24 -15 13 -13 40 -27 59 -30 20 -4 38 -13
41 -21 3 -8 11 -14 17 -14 7 0 27 -16 46 -35 30 -31 40 -35 87 -35 40 0 57 5
71 20 10 11 30 20 45 20 15 0 35 9 45 20 10 11 29 20 42 20 12 0 32 9 43 20
11 11 29 20 39 20 11 0 23 9 26 21 4 11 18 24 31 29 36 14 32 61 -11 117 -19
25 -35 52 -35 59 0 8 -11 20 -23 29 -13 8 -28 30 -34 49 l-11 34 56 21 56 20
58 -35 c32 -19 60 -39 63 -45 11 -17 45 -9 87 21 22 17 47 30 55 30 7 0 13 4
13 9 0 18 100 44 141 37 23 -4 49 -2 60 5 20 10 21 9 14 -23 -11 -50 -21 -72
-39 -87 -9 -7 -16 -20 -16 -29 0 -11 8 -8 30 13 20 19 31 42 36 72 3 24 13 51
21 58 13 13 12 15 -1 15 -9 0 -34 11 -56 25 -102 65 -225 97 -295 78z m-795
-463 c0 -23 -5 -30 -19 -30 -25 0 -36 17 -22 34 6 7 8 16 4 19 -3 4 3 7 15 7
18 0 22 -6 22 -30z"/>
<path d="M1750 1870 c0 -16 2 -30 4 -30 2 0 6 14 8 30 3 17 1 30 -4 30 -4 0
-8 -13 -8 -30z"/>
<path d="M2083 1892 c-18 -3 -23 -10 -23 -33 0 -25 4 -29 29 -29 24 0 29 5 33
30 5 31 -4 38 -39 32z m25 -35 c2 -12 -3 -17 -17 -17 -12 0 -21 6 -21 13 0 31
32 34 38 4z"/>
<path d="M1736 1813 c-6 -14 -5 -15 5 -6 7 7 10 15 7 18 -3 3 -9 -2 -12 -12z"/>
<path d="M956 1775 c-29 -30 -14 -69 25 -63 20 2 24 9 24 38 0 40 -22 51 -49
25z m44 -14 c0 -21 -13 -41 -26 -41 -8 0 -14 10 -14 25 0 18 5 25 20 25 11 0
20 -4 20 -9z"/>
<path d="M2468 1743 c7 -3 16 -2 19 1 4 3 -2 6 -13 5 -11 0 -14 -3 -6 -6z"/>
<path d="M2518 1733 c6 -2 18 -2 25 0 6 3 1 5 -13 5 -14 0 -19 -2 -12 -5z"/>
<path d="M2593 1723 c15 -2 39 -2 55 0 15 2 2 4 -28 4 -30 0 -43 -2 -27 -4z"/>
<path d="M2867 1714 c-4 -4 -7 -20 -7 -36 0 -27 3 -29 33 -26 28 3 32 6 32 33
0 25 -5 31 -25 33 -14 2 -29 0 -33 -4z m48 -30 c0 -12 -8 -20 -22 -22 -17 -3
-23 2 -23 16 0 20 16 33 35 28 6 -2 10 -11 10 -22z"/>
<path d="M1669 1693 c-13 -16 -12 -17 4 -4 9 7 17 15 17 17 0 8 -8 3 -21 -13z"/>
<path d="M3965 1295 c0 -231 1 -324 2 -207 2 117 2 306 0 420 -1 114 -2 18 -2
-213z"/>
<path d="M2087 1673 c-4 -3 -7 -19 -7 -35 0 -25 3 -28 35 -28 33 0 35 2 35 35
0 32 -3 35 -28 35 -16 0 -32 -3 -35 -7z m51 -31 c3 -16 -2 -22 -17 -22 -24 0
-35 15 -27 36 9 23 40 13 44 -14z"/>
<path d="M385 1650 c10 -11 20 -20 23 -20 3 0 -3 9 -13 20 -10 11 -20 20 -23
20 -3 0 3 -9 13 -20z"/>
<path d="M3091 1623 c18 -21 38 -42 43 -48 5 -6 5 -3 0 6 -14 25 -62 79 -70
79 -5 0 8 -17 27 -37z"/>
<path d="M875 1600 c-4 -6 -3 -24 0 -41 6 -27 10 -30 33 -24 37 9 46 20 38 49
-5 21 -13 26 -36 26 -16 0 -32 -5 -35 -10z m58 -14 c6 -15 -11 -36 -29 -36
-17 0 -24 26 -11 39 15 15 34 14 40 -3z"/>
<path d="M1631 1594 c0 -11 3 -14 6 -6 3 7 2 16 -1 19 -3 4 -6 -2 -5 -13z"/>
<path d="M690 1535 c-7 -20 -9 -58 -5 -92 7 -70 35 -173 47 -173 11 0 10 17
-7 80 -16 58 -21 210 -7 210 5 0 32 -20 61 -45 29 -25 50 -45 46 -45 -3 0 14
-17 38 -37 54 -46 97 -118 97 -164 -1 -28 -8 -39 -41 -62 -47 -32 -84 -104
-94 -183 -5 -39 -1 -69 16 -125 22 -72 66 -159 81 -159 10 0 -1 29 -22 60 -10
14 -25 48 -35 75 -44 132 -25 227 63 313 30 28 60 52 67 52 7 0 18 13 23 29 9
27 8 30 -17 41 -16 6 -37 28 -49 49 -12 20 -62 76 -111 124 -104 100 -132 110
-151 52z m309 -244 c16 -10 6 -31 -15 -31 -8 0 -14 9 -14 20 0 22 7 25 29 11z"/>
<path d="M1700 1496 c0 -38 20 -52 51 -36 36 20 20 70 -22 70 -26 0 -29 -3
-29 -34z m50 10 c0 -21 -11 -46 -20 -46 -12 0 -23 37 -15 50 9 15 35 12 35 -4z"/>
<path d="M2980 1490 c0 -36 3 -40 24 -40 25 0 36 16 36 56 0 20 -5 24 -30 24
-28 0 -30 -2 -30 -40z m46 8 c-3 -13 -6 -26 -6 -30 0 -17 -27 -7 -27 10 -2 29
6 42 23 42 12 0 15 -6 10 -22z"/>
<path d="M1382 1490 c0 -14 2 -19 5 -12 2 6 2 18 0 25 -3 6 -5 1 -5 -13z"/>
<path d="M1946 1475 c-3 -9 -6 -30 -6 -46 0 -28 2 -30 33 -27 30 3 32 5 32 43
0 36 -3 40 -26 43 -17 2 -29 -3 -33 -13z m50 -19 c7 -29 -1 -46 -21 -46 -20 0
-27 15 -19 45 8 32 32 33 40 1z"/>
<path d="M2927 1333 c-4 -3 -7 -19 -7 -35 0 -25 3 -28 34 -28 26 0 35 5 39 21
3 11 3 27 0 35 -5 14 -54 20 -66 7z m53 -23 c0 -24 -26 -38 -42 -22 -16 16 -2
42 22 42 13 0 20 -7 20 -20z"/>
<path d="M1526 1304 c-9 -34 4 -46 40 -42 25 2 29 8 32 36 3 31 2 32 -31 32
-29 0 -36 -4 -41 -26z m62 -6 c-2 -15 -10 -23 -23 -23 -13 0 -21 8 -23 23 -3
18 1 22 23 22 22 0 26 -4 23 -22z"/>
<path d="M1807 1293 c-4 -3 -7 -19 -7 -35 0 -25 3 -28 35 -28 28 0 36 4 41 24
3 14 3 30 -1 35 -7 12 -58 15 -68 4z m53 -28 c0 -18 -5 -25 -19 -25 -28 0 -37
21 -16 37 27 19 35 16 35 -12z"/>
<path d="M2436 1254 c-12 -33 -6 -54 18 -60 33 -8 46 2 46 35 0 21 -6 30 -22
35 -33 8 -35 8 -42 -10z m50 -15 c10 -16 -23 -46 -36 -33 -6 6 -8 18 -4 27 7
19 29 22 40 6z"/>
<path d="M2707 1263 c-4 -3 -7 -17 -7 -29 0 -17 7 -25 24 -30 34 -8 46 2 46
37 0 25 -4 29 -28 29 -16 0 -32 -3 -35 -7z m51 -24 c4 -19 -27 -34 -41 -20
-14 14 0 43 20 39 10 -2 19 -10 21 -19z"/>
<path d="M2105 1250 c-4 -6 -4 -22 -1 -36 6 -21 12 -25 39 -22 28 3 32 7 32
33 0 26 -4 30 -32 33 -17 2 -34 -2 -38 -8z m54 -9 c12 -8 12 -12 2 -25 -8 -9
-19 -16 -26 -16 -18 0 -26 25 -12 39 13 13 18 13 36 2z"/>
<path d="M587 1233 c-18 -49 8 -158 67 -285 36 -77 54 -104 104 -149 73 -65
192 -114 192 -78 0 5 -4 8 -9 5 -19 -12 -140 53 -186 101 -78 79 -141 228
-154 358 -5 50 -9 64 -14 48z"/>
<path d="M1320 1209 c1 -29 74 -89 107 -89 26 1 63 35 63 58 0 22 -19 29 -110
39 -48 5 -60 3 -60 -8z m108 -15 c28 -4 52 -10 52 -13 0 -3 -12 -17 -25 -30
-27 -25 -22 -26 -75 16 -8 7 -24 20 -35 29 -20 15 -19 15 5 10 14 -3 49 -9 78
-12z"/>
<path d="M1876 1171 c-4 -5 3 -7 14 -4 23 6 26 13 6 13 -8 0 -17 -4 -20 -9z"/>
<path d="M2463 1153 c-119 -4 -126 -11 -67 -78 l35 -39 53 11 c112 24 182 69
161 103 -3 5 -23 9 -43 8 -20 -1 -83 -4 -139 -5z m166 -27 c-19 -17 -137 -65
-169 -69 -17 -1 -28 5 -34 20 -6 12 -21 27 -33 34 -13 7 -23 15 -23 18 0 3 62
7 137 8 113 2 134 0 122 -11z"/>
<path d="M2335 970 c-3 -5 3 -10 14 -10 12 0 21 5 21 10 0 6 -6 10 -14 10 -8
0 -18 -4 -21 -10z"/>
<path d="M3964 645 c0 -93 2 -133 3 -88 2 45 2 122 0 170 -1 48 -3 12 -3 -82z"/>
<path d="M992 654 c10 -10 20 -16 22 -13 3 3 -5 11 -17 18 -21 13 -21 12 -5
-5z"/>
<path d="M1580 580 c0 -13 37 -50 50 -50 19 0 10 16 -20 38 -16 13 -30 18 -30
12z"/>
<path d="M1673 515 c0 -8 4 -12 9 -9 5 3 6 10 3 15 -9 13 -12 11 -12 -6z"/>
<path d="M1818 463 c6 -2 18 -2 25 0 6 3 1 5 -13 5 -14 0 -19 -2 -12 -5z"/>
<path d="M3964 325 c0 -82 2 -115 3 -72 2 43 2 110 0 150 -1 40 -3 5 -3 -78z"/>
<path d="M1868 453 c6 -2 18 -2 25 0 6 3 1 5 -13 5 -14 0 -19 -2 -12 -5z"/>
<path d="M1645 410 c3 -5 10 -10 16 -10 5 0 9 5 9 10 0 6 -7 10 -16 10 -8 0
-12 -4 -9 -10z"/>
<path d="M1723 383 c9 -2 23 -2 30 0 6 3 -1 5 -18 5 -16 0 -22 -2 -12 -5z"/>
<path d="M1958 43 c354 -2 930 -2 1280 0 350 1 61 2 -643 2 -704 0 -991 -1
-637 -2z"/>
<path d="M670 10 c-11 -7 -2 -10 33 -10 26 0 47 5 47 10 0 13 -60 13 -80 0z"/>
</g>
</svg>
