<?xml version="1.0" standalone="no"?>
<!DOCTYPE svg PUBLIC "-//W3C//DTD SVG 20010904//EN"
 "http://www.w3.org/TR/2001/REC-SVG-20010904/DTD/svg10.dtd">
<svg version="1.0" xmlns="http://www.w3.org/2000/svg"
 width="226.000000pt" height="270.000000pt" viewBox="0 0 226.000000 270.000000"
 preserveAspectRatio="xMidYMid meet">
<metadata>
Created by potrace 1.15, written by Peter Selinger 2001-2017
</metadata>
<g transform="translate(0.000000,270.000000) scale(0.100000,-0.100000)"
fill="#000000" stroke="none">
<path d="M1 2658 c0 -28 2 -30 9 -13 12 28 12 45 0 45 -5 0 -10 -15 -9 -32z"/>
<path d="M861 2664 c-115 -34 -264 -112 -338 -179 -33 -30 -66 -55 -72 -55 -6
0 -11 -4 -11 -9 0 -5 -16 -15 -35 -21 -19 -6 -37 -15 -40 -20 -14 -22 86 25
129 60 27 22 58 43 70 46 29 7 108 -12 158 -37 22 -11 45 -18 51 -16 25 8 -98
59 -156 65 l-59 5 49 30 c111 70 218 110 398 150 11 3 2 5 -20 5 -22 1 -78
-10 -124 -24z"/>
<path d="M1185 2674 c43 -7 81 -11 83 -9 8 8 -75 25 -118 24 -39 -1 -34 -3 35
-15z"/>
<path d="M1285 2660 c3 -4 14 -10 25 -13 11 -3 18 -2 15 3 -3 4 -14 10 -25 13
-11 3 -18 2 -15 -3z"/>
<path d="M516 2635 c-16 -12 -17 -15 -4 -15 8 0 21 7 28 15 16 19 1 19 -24 0z"/>
<path d="M2020 2606 c0 -2 8 -10 18 -17 15 -13 16 -12 3 4 -13 16 -21 21 -21
13z"/>
<path d="M853 2585 c-46 -20 -72 -82 -42 -101 7 -4 9 0 5 14 -10 30 10 61 50
78 30 13 38 13 63 0 32 -17 42 -35 35 -63 -5 -18 0 -20 95 -18 89 1 103 3 124
23 13 12 29 22 35 22 24 0 25 -31 2 -55 -22 -24 -22 -25 -5 -60 10 -23 14 -47
11 -63 -5 -20 -4 -23 4 -12 14 21 12 46 -6 82 -15 28 -14 31 6 45 14 10 20 23
18 41 -4 35 -35 40 -72 11 -24 -19 -42 -22 -116 -23 -69 -1 -86 2 -82 12 7 20
-17 58 -45 71 -30 14 -41 13 -80 -4z"/>
<path d="M1433 2581 c1 -22 7 -24 47 -11 l25 8 -25 1 c-15 1 -31 6 -37 12 -9
9 -12 7 -10 -10z"/>
<path d="M1695 2540 c33 -33 62 -60 64 -60 3 0 -21 27 -54 60 -33 33 -62 60
-64 60 -3 0 21 -27 54 -60z"/>
<path d="M1620 2577 c0 -2 15 -16 33 -33 l32 -29 -29 33 c-28 30 -36 37 -36
29z"/>
<path d="M1538 2550 c17 -11 32 -25 32 -31 0 -20 -23 -54 -61 -91 -20 -21 -33
-38 -27 -38 22 0 108 109 108 137 0 6 -64 43 -75 43 -5 0 5 -9 23 -20z"/>
<path d="M1462 2530 c0 -14 2 -19 5 -12 2 6 2 18 0 25 -3 6 -5 1 -5 -13z"/>
<path d="M2101 2520 c33 -48 59 -76 59 -63 0 6 -19 30 -41 54 -36 39 -38 40
-18 9z"/>
<path d="M414 2508 l-19 -23 23 19 c21 18 27 26 19 26 -2 0 -12 -10 -23 -22z"/>
<path d="M1361 2503 l-13 -28 21 22 c23 24 26 33 13 33 -5 0 -14 -12 -21 -27z"/>
<path d="M1690 2507 c0 -2 15 -16 33 -33 l32 -29 -29 33 c-28 30 -36 37 -36
29z"/>
<path d="M1442 2480 c-15 -25 -15 -31 1 -24 7 2 13 13 14 24 2 25 1 25 -15 0z"/>
<path d="M1478 2473 c7 -3 16 -2 19 1 4 3 -2 6 -13 5 -11 0 -14 -3 -6 -6z"/>
<path d="M365 2457 c-68 -39 -96 -62 -114 -91 -22 -35 -28 -86 -11 -86 6 0 10
-9 10 -20 0 -39 49 -46 159 -24 29 6 33 5 28 -9 -4 -11 -2 -14 9 -10 15 6 19
19 7 26 -5 2 -3 2 4 1 6 -2 21 6 34 17 22 19 31 21 144 25 64 2 125 -11 125
-27 0 -6 4 -8 8 -5 5 3 22 -3 38 -13 30 -18 31 -18 70 5 44 27 124 33 169 12
34 -15 32 -30 -2 -21 -33 9 -78 9 -114 0 -36 -9 -105 -68 -102 -87 4 -19 -5
-32 -35 -52 -22 -15 -20 -16 37 -11 53 5 61 3 61 -12 0 -25 -70 -92 -116 -111
-22 -9 -34 -19 -28 -21 19 -7 3 -43 -25 -57 -14 -8 -41 -17 -59 -21 -31 -6
-33 -5 -27 14 3 11 3 26 -2 33 -5 9 -9 3 -13 -16 -6 -36 -25 -45 -27 -14 -3
37 -48 68 -98 68 -37 0 -43 3 -38 17 4 11 3 14 -5 9 -7 -4 -12 -15 -12 -25 0
-10 -10 -30 -21 -45 -17 -22 -27 -26 -48 -21 -14 4 -28 10 -31 14 -3 4 -27 20
-53 36 -38 22 -56 26 -87 22 -37 -5 -39 -4 -43 27 l-4 31 -1 -32 c-1 -18 -13
-49 -27 -69 -14 -20 -25 -46 -24 -58 0 -16 3 -15 11 9 26 73 84 100 146 67 20
-11 58 -31 83 -44 l45 -24 -15 -35 c-9 -19 -18 -36 -21 -39 -3 -3 -6 -12 -8
-21 -3 -19 24 -33 33 -19 4 6 28 10 56 10 36 0 49 -4 49 -14 0 -17 -34 -30
-52 -21 -7 4 -5 0 6 -9 18 -15 18 -16 -10 -50 -16 -19 -32 -35 -35 -35 -6 -1
-29 45 -29 59 0 5 9 12 20 15 11 3 20 11 20 16 0 6 -15 1 -34 -10 -35 -22
-110 -29 -121 -11 -9 15 4 50 20 50 7 0 15 -7 19 -15 6 -17 34 -19 56 -4 12 8
10 9 -8 4 -13 -4 -29 -1 -38 6 -13 11 -12 14 13 26 15 7 19 11 8 7 -90 -26
-104 -27 -144 -15 -27 7 -46 21 -55 39 -9 15 -15 21 -16 14 0 -27 60 -72 97
-72 29 0 33 -3 28 -19 -10 -32 35 -56 84 -44 38 10 39 10 55 -24 l17 -35 -46
-53 c-25 -30 -64 -68 -87 -86 l-41 -33 29 -13 c16 -7 40 -12 53 -13 44 0 151
22 151 32 0 5 -4 6 -10 3 -19 -12 -124 -25 -159 -19 l-36 5 83 86 c104 108
188 223 170 235 -21 13 -116 10 -121 -4 -3 -7 -6 -5 -6 6 -1 11 15 47 34 82
l35 63 24 -24 c24 -24 84 -41 108 -32 7 3 0 6 -15 6 -54 2 -108 45 -91 72 9
15 78 10 102 -7 12 -8 22 -26 22 -39 0 -13 7 -28 17 -33 15 -9 14 -11 -5 -21
-11 -6 -33 -37 -49 -68 -26 -55 -28 -66 -30 -203 -1 -80 -5 -169 -9 -197 -6
-46 -4 -53 10 -53 10 0 23 -15 32 -35 8 -19 15 -35 17 -35 1 0 2 15 2 32 0 24
5 33 19 36 15 3 18 0 13 -17 -6 -23 -5 -24 17 -15 13 5 14 8 1 20 -8 8 -12 20
-9 28 6 15 -23 42 -33 32 -4 -4 -1 -11 7 -16 8 -5 11 -12 7 -16 -4 -4 -13 -2
-19 4 -17 17 -28 15 -22 -3 4 -8 1 -15 -4 -15 -18 0 -22 17 -7 30 13 10 13 14
0 27 -9 8 -12 20 -8 26 5 8 8 8 11 -1 2 -7 12 -12 22 -12 17 0 18 3 6 33 -7
17 -11 38 -9 45 3 8 -1 10 -11 6 -14 -6 -17 -1 -15 24 0 4 6 6 13 4 9 -1 15
19 19 71 9 122 52 197 113 197 28 0 35 -5 53 -43 31 -64 28 -143 -10 -258 -17
-52 -35 -99 -40 -106 -7 -7 -5 -13 3 -16 10 -4 11 -7 1 -18 -18 -18 -16 -34 2
-19 8 7 15 18 15 25 0 14 24 83 85 250 26 70 36 116 36 152 l-1 52 33 -6 c43
-7 105 11 152 43 37 25 39 25 75 9 55 -25 122 -21 173 8 l43 25 21 -24 c22
-25 43 -32 43 -14 0 6 -6 10 -12 11 -7 0 -4 4 7 9 17 8 16 9 -9 9 -26 1 -28 4
-24 31 3 19 0 30 -8 30 -8 0 -11 13 -10 38 2 49 12 62 44 63 26 0 26 1 5 9
-32 13 -29 46 5 64 15 8 22 15 17 16 -6 0 -20 -7 -32 -15 -18 -13 -29 -13 -78
-2 -57 13 -75 29 -39 35 10 2 25 11 31 20 12 14 14 14 31 -1 23 -21 38 -22 46
-1 10 26 7 29 -9 8 -14 -18 -16 -18 -29 -1 -7 9 -26 17 -42 16 -16 0 -23 -3
-16 -6 21 -8 13 -23 -12 -23 -13 0 -26 -6 -29 -13 -4 -10 -22 -14 -60 -13 -30
1 -53 -2 -51 -6 2 -3 -22 -14 -53 -23 -32 -9 -85 -28 -117 -41 l-60 -24 23 24
c31 33 24 60 -15 64 -32 3 -32 3 -21 39 7 24 24 44 51 62 34 22 50 26 113 25
52 0 73 3 73 12 0 16 -39 44 -61 44 -10 0 -21 13 -28 30 -5 17 -12 30 -15 30
-3 0 -1 -11 4 -25 9 -24 8 -25 -27 -25 -29 0 -43 7 -66 33 -24 27 -25 27 -8 3
29 -40 26 -51 -16 -64 -33 -10 -43 -8 -90 13 -44 21 -66 25 -148 25 -81 0
-103 -4 -143 -24 -30 -15 -76 -27 -119 -31 -64 -7 -73 -5 -92 14 -34 34 -28
77 18 122 41 42 58 48 63 24 2 -8 11 3 20 25 9 22 16 40 15 39 -1 -1 -11 -6
-22 -12z m880 -388 c22 -5 47 -11 55 -13 19 -4 25 -32 9 -41 -6 -4 -48 -7 -93
-6 -44 1 -87 -3 -95 -8 -8 -5 22 -7 78 -3 60 3 91 1 91 -6 0 -6 2 -16 5 -24 4
-10 -15 -13 -87 -14 -112 -1 -217 -28 -327 -83 -76 -38 -77 -38 -100 -20 -13
11 -30 19 -39 19 -12 0 -10 5 8 24 12 14 20 31 17 39 -5 15 63 49 198 99 127
47 202 57 280 37z m45 -151 c11 -12 20 -25 20 -29 0 -4 -22 -19 -50 -33 -59
-31 -114 -33 -182 -9 -46 16 -48 16 -70 -4 -37 -33 -66 -44 -137 -51 l-66 -7
-6 -65 c-3 -36 -10 -76 -16 -89 -9 -22 -10 -19 -16 28 -8 71 -46 121 -90 121
-18 0 -38 -4 -45 -9 -14 -9 -62 -3 -62 8 0 3 13 20 29 37 31 35 91 54 91 29 0
-8 7 -15 15 -15 8 0 15 7 15 15 0 17 23 11 58 -16 22 -17 25 -16 118 27 116
55 210 78 331 82 32 2 47 -3 63 -20z m-690 -168 c0 -5 -4 -10 -10 -10 -5 0
-10 5 -10 10 0 6 5 10 10 10 6 0 10 -4 10 -10z m-36 -47 c-10 -7 -12 -13 -6
-13 7 0 12 -4 12 -10 0 -5 -4 -10 -9 -10 -16 0 -23 38 -10 61 11 21 12 21 22
4 7 -14 6 -21 -9 -32z m-17 -68 c-4 -8 -11 -15 -17 -15 -7 0 -7 6 0 21 13 23
26 19 17 -6z m-10 -97 c-2 -13 -4 -3 -4 22 0 25 2 35 4 23 2 -13 2 -33 0 -45z"/>
<path d="M1058 1988 c6 -6 18 -8 28 -6 14 3 12 5 -9 10 -19 3 -25 2 -19 -4z"/>
<path d="M1010 1970 c-18 -12 -2 -12 25 0 13 6 15 9 5 9 -8 0 -22 -4 -30 -9z"/>
<path d="M854 1915 c-10 -8 -14 -15 -7 -15 6 0 15 5 18 10 4 6 11 7 17 4 7 -4
8 -2 4 4 -9 15 -8 15 -32 -3z"/>
<path d="M777 2459 c7 -7 15 -10 18 -7 3 3 -2 9 -12 12 -14 6 -15 5 -6 -5z"/>
<path d="M1295 2462 c-3 -3 -2 -16 1 -29 5 -18 -1 -31 -25 -53 -17 -17 -31
-34 -31 -39 0 -4 16 6 35 25 24 22 35 42 35 61 0 25 3 28 33 27 82 -2 117 -70
45 -88 -29 -7 -38 -15 -38 -30 0 -25 50 -51 79 -41 14 4 25 -1 36 -19 9 -14
14 -30 10 -36 -3 -5 2 -10 13 -10 30 0 46 -27 46 -79 0 -45 2 -49 30 -57 49
-15 44 -34 -9 -34 -40 0 -52 -5 -76 -31 -18 -19 -29 -42 -29 -59 0 -30 43 -90
65 -90 24 0 25 -29 2 -45 -16 -10 -41 -13 -85 -11 -48 3 -62 1 -62 -10 0 -17
42 -28 84 -21 30 5 35 2 50 -29 9 -19 24 -38 33 -41 30 -11 53 -44 53 -75 0
-18 4 -27 11 -23 6 4 7 19 4 36 -4 18 -2 36 5 44 7 8 10 15 6 15 -3 0 2 9 10
19 16 19 17 19 48 0 17 -10 38 -19 46 -19 8 0 -5 9 -29 20 -31 15 -42 24 -37
36 3 9 6 26 6 39 0 14 7 25 18 28 13 4 12 5 -5 6 -27 1 -40 20 -22 32 11 7 11
9 -2 9 -25 0 -29 -11 -14 -34 21 -29 19 -70 -6 -97 -11 -13 -18 -19 -14 -12 7
15 -14 101 -28 110 -6 4 -7 1 -2 -7 6 -10 4 -12 -9 -7 -10 4 -20 7 -22 7 -2 0
-4 5 -4 10 0 6 14 10 30 10 26 0 30 4 30 28 0 18 -9 36 -22 48 -23 19 -23 19
-5 -2 9 -11 17 -30 17 -42 0 -18 -6 -22 -30 -22 -60 0 -110 41 -110 90 0 36
53 80 95 80 32 0 95 -23 95 -35 0 -2 -12 -11 -27 -19 -16 -8 -23 -15 -18 -15
6 0 21 6 34 13 22 12 27 12 42 -8 9 -11 24 -36 33 -53 l17 -33 -32 0 c-41 0
-35 -5 13 -13 37 -6 37 -6 25 21 -21 50 -65 107 -92 122 -15 8 -31 25 -36 38
-5 13 -22 28 -37 34 -25 10 -27 14 -23 55 3 44 -17 83 -43 83 -6 0 -18 15 -26
33 -12 25 -22 32 -45 34 -83 4 -99 32 -30 51 25 7 45 16 45 21 0 24 -21 61
-35 61 -8 0 -15 6 -15 14 0 10 -14 13 -50 13 -28 0 -53 -3 -55 -5z m269 -633
c19 -9 27 -22 32 -55 3 -23 3 -47 -1 -53 -9 -16 -61 23 -80 58 -12 25 -12 30
3 44 19 20 15 20 46 6z"/>
<path d="M863 2420 c32 -10 65 -24 75 -31 14 -12 14 -10 -1 8 -10 11 -38 26
-62 32 -68 17 -76 11 -12 -9z"/>
<path d="M1046 2432 c-3 -5 8 -6 25 -4 16 2 29 6 29 8 0 8 -49 4 -54 -4z"/>
<path d="M1760 2426 c0 -2 8 -10 18 -17 15 -13 16 -12 3 4 -13 16 -21 21 -21
13z"/>
<path d="M610 2390 c52 -3 105 -12 117 -18 12 -7 32 -12 45 -11 13 0 -4 9 -37
19 -41 14 -85 19 -140 18 l-80 -1 95 -7z"/>
<path d="M1790 2386 c0 -2 8 -10 18 -17 15 -13 16 -12 3 4 -13 16 -21 21 -21
13z"/>
<path d="M488 2353 c7 -3 16 -2 19 1 4 3 -2 6 -13 5 -11 0 -14 -3 -6 -6z"/>
<path d="M1171 2352 c-1 -9 -8 -11 -22 -7 -21 7 -21 7 1 -15 25 -25 33 -21 27
12 -2 12 -5 17 -6 10z"/>
<path d="M410 2340 c-11 -7 -5 -8 20 -4 43 8 51 14 19 14 -13 0 -31 -5 -39
-10z"/>
<path d="M644 2339 c-3 -5 4 -9 16 -9 12 0 29 -4 38 -9 19 -9 88 -24 81 -16
-13 12 -130 42 -135 34z"/>
<path d="M1901 2334 c0 -11 3 -14 6 -6 3 7 2 16 -1 19 -3 4 -6 -2 -5 -13z"/>
<path d="M485 2326 c-48 -12 -101 -35 -80 -36 6 0 30 7 55 16 25 9 74 16 109
15 35 0 62 1 60 3 -13 11 -102 13 -144 2z"/>
<path d="M1090 2320 c0 -5 9 -10 20 -10 11 0 20 -7 20 -15 0 -8 5 -15 10 -15
14 0 13 23 -2 38 -15 15 -48 16 -48 2z"/>
<path d="M1978 2303 c7 -3 16 -2 19 1 4 3 -2 6 -13 5 -11 0 -14 -3 -6 -6z"/>
<path d="M2023 2303 c9 -2 25 -2 35 0 9 3 1 5 -18 5 -19 0 -27 -2 -17 -5z"/>
<path d="M801 2297 c2 -1 13 -9 24 -17 19 -14 19 -14 6 3 -7 9 -18 17 -24 17
-6 0 -8 -1 -6 -3z"/>
<path d="M2246 2275 c4 -8 8 -15 10 -15 2 0 4 7 4 15 0 8 -4 15 -10 15 -5 0
-7 -7 -4 -15z"/>
<path d="M214 2234 c-40 -94 -65 -214 -46 -214 5 0 9 15 9 33 0 38 26 135 49
178 8 17 13 33 10 36 -3 4 -13 -11 -22 -33z"/>
<path d="M530 2253 c8 -3 24 -10 35 -15 20 -9 20 -9 1 6 -11 9 -27 16 -35 15
-14 0 -14 -1 -1 -6z"/>
<path d="M707 2229 c7 -7 15 -10 18 -7 3 3 -2 9 -12 12 -14 6 -15 5 -6 -5z"/>
<path d="M755 2230 c-3 -5 -1 -10 4 -10 6 0 11 5 11 10 0 6 -2 10 -4 10 -3 0
-8 -4 -11 -10z"/>
<path d="M482 2216 c7 -8 15 -12 17 -11 5 6 -10 25 -20 25 -5 0 -4 -6 3 -14z"/>
<path d="M791 2214 c0 -11 3 -14 6 -6 3 7 2 16 -1 19 -3 4 -6 -2 -5 -13z"/>
<path d="M492 2170 c0 -14 2 -19 5 -12 2 6 2 18 0 25 -3 6 -5 1 -5 -13z"/>
<path d="M587 2170 c-16 -5 -34 -13 -40 -18 -7 -5 -26 -13 -44 -16 -17 -4 -36
-13 -41 -19 -17 -20 -24 -80 -13 -107 9 -23 10 -21 9 15 -2 68 13 91 62 100 3
0 21 9 40 20 44 23 110 24 144 2 29 -19 44 -62 29 -85 -17 -28 -33 -25 -33 6
0 16 -7 35 -15 42 -15 13 -146 27 -133 15 5 -6 51 -12 106 -14 13 -1 20 -5 17
-11 -3 -5 -3 -10 2 -10 4 0 9 -12 9 -26 2 -34 10 -39 38 -26 35 16 41 46 16
86 -30 49 -86 66 -153 46z"/>
<path d="M1160 2139 c0 -5 5 -7 10 -4 6 3 10 8 10 11 0 2 -4 4 -10 4 -5 0 -10
-5 -10 -11z"/>
<path d="M984 2120 c1 -18 63 -27 78 -12 7 7 -3 9 -30 5 -29 -4 -41 -2 -45 8
-3 10 -4 10 -3 -1z"/>
<path d="M1449 2063 l-24 -28 28 24 c25 23 32 31 24 31 -2 0 -14 -12 -28 -27z"/>
<path d="M1510 1976 c0 -2 11 -6 25 -8 14 -3 25 -1 25 3 0 5 -11 9 -25 9 -14
0 -25 -2 -25 -4z"/>
<path d="M713 1963 c-15 -5 -17 -23 -4 -23 5 0 11 7 15 15 3 8 4 15 3 14 -1 0
-8 -3 -14 -6z"/>
<path d="M1952 1935 c0 -16 2 -22 5 -12 2 9 2 23 0 30 -3 6 -5 -1 -5 -18z"/>
<path d="M1822 1898 c-29 -12 -51 -23 -49 -25 2 -2 29 6 60 18 53 20 58 21 82
5 14 -9 25 -12 25 -7 0 12 -33 31 -52 30 -7 0 -37 -10 -66 -21z"/>
<path d="M210 1845 c19 -20 32 -25 69 -23 l46 1 -41 4 c-25 3 -49 12 -59 24
-10 10 -23 19 -28 19 -6 0 0 -11 13 -25z"/>
<path d="M1836 1813 c-4 -4 -41 -10 -84 -14 l-77 -7 82 1 c50 1 87 7 95 15 7
7 8 12 2 12 -6 0 -14 -3 -18 -7z"/>
<path d="M1902 1750 c-12 -10 -28 -20 -35 -23 -6 -2 -9 -7 -6 -10 3 -4 21 7
40 23 19 16 32 29 29 29 -3 0 -15 -8 -28 -19z"/>
<path d="M1640 1716 c0 -8 51 -32 83 -40 19 -4 26 -3 22 4 -3 5 -15 10 -26 10
-11 0 -33 7 -49 15 -17 9 -30 13 -30 11z"/>
<path d="M1773 1713 c44 -5 47 -19 12 -57 -31 -33 -66 -33 -125 -1 l-45 25 30
-25 c65 -55 133 -45 165 22 8 18 22 34 30 36 8 3 -12 4 -45 4 -38 0 -46 -2
-22 -4z"/>
<path d="M1418 1698 c-4 -9 -2 -18 4 -20 21 -7 -1 -41 -22 -35 -11 3 -20 1
-20 -4 0 -12 31 -11 49 0 11 7 12 17 5 43 -8 25 -11 29 -16 16z"/>
<path d="M1921 1694 c0 -11 3 -14 6 -6 3 7 2 16 -1 19 -3 4 -6 -2 -5 -13z"/>
<path d="M1030 1680 c86 -6 115 -16 160 -54 l25 -21 -20 24 c-38 44 -87 61
-172 59 l-78 -1 85 -7z"/>
<path d="M918 1673 c7 -3 16 -2 19 1 4 3 -2 6 -13 5 -11 0 -14 -3 -6 -6z"/>
<path d="M200 1626 c0 -2 8 -10 18 -17 15 -13 16 -12 3 4 -13 16 -21 21 -21
13z"/>
<path d="M1443 1580 c-18 -11 -33 -23 -33 -26 0 -3 12 2 28 12 15 10 47 21 72
25 l45 6 -40 2 c-24 0 -53 -7 -72 -19z"/>
<path d="M215 1580 c-3 -5 -1 -10 4 -10 6 0 11 5 11 10 0 6 -2 10 -4 10 -3 0
-8 -4 -11 -10z"/>
<path d="M636 1575 c-3 -9 -6 -22 -5 -28 0 -7 5 -1 10 12 5 13 8 26 5 28 -2 2
-6 -3 -10 -12z"/>
<path d="M1613 1505 c0 -38 2 -53 4 -32 2 20 2 52 0 70 -2 17 -4 1 -4 -38z"/>
<path d="M233 1545 c0 -8 4 -12 8 -9 4 2 10 -4 12 -13 4 -15 5 -15 6 -2 0 9
-5 22 -12 28 -10 8 -14 7 -14 -4z"/>
<path d="M680 1535 c-13 -14 -21 -27 -18 -30 2 -3 14 9 27 25 26 37 23 39 -9
5z"/>
<path d="M1371 1514 c0 -11 3 -14 6 -6 3 7 2 16 -1 19 -3 4 -6 -2 -5 -13z"/>
<path d="M622 1490 c0 -19 2 -27 5 -17 2 9 2 25 0 35 -3 9 -5 1 -5 -18z"/>
<path d="M1850 1500 c-6 -11 -8 -20 -6 -20 3 0 10 9 16 20 6 11 8 20 6 20 -3
0 -10 -9 -16 -20z"/>
<path d="M930 1490 c8 -5 20 -10 25 -10 6 0 3 5 -5 10 -8 5 -19 10 -25 10 -5
0 -3 -5 5 -10z"/>
<path d="M1690 1489 c0 -4 7 -22 15 -40 8 -19 14 -27 14 -19 0 14 -28 72 -29
59z"/>
<path d="M1023 1463 c9 -2 17 -10 17 -18 0 -7 7 -15 15 -19 17 -6 45 2 45 14
0 5 15 11 33 13 22 3 17 4 -19 5 -28 1 -64 4 -80 6 -16 2 -21 1 -11 -1z"/>
<path d="M1363 1405 c0 -38 2 -56 4 -39 3 20 12 36 26 43 l22 11 -22 -5 c-18
-5 -22 -1 -26 27 -2 18 -4 2 -4 -37z"/>
<path d="M2195 1450 c-3 -6 1 -7 9 -4 18 7 21 14 7 14 -6 0 -13 -4 -16 -10z"/>
<path d="M630 1444 c0 -18 27 -36 47 -31 14 4 14 5 -4 6 -12 0 -27 9 -32 19
-6 9 -11 12 -11 6z"/>
<path d="M2155 1430 c-3 -6 1 -7 9 -4 18 7 21 14 7 14 -6 0 -13 -4 -16 -10z"/>
<path d="M416 1415 c-3 -9 -6 -22 -5 -28 0 -7 5 -1 10 12 5 13 8 26 5 28 -2 2
-6 -3 -10 -12z"/>
<path d="M1819 1403 c-13 -16 -12 -17 4 -4 9 7 17 15 17 17 0 8 -8 3 -21 -13z"/>
<path d="M1420 1396 c0 -20 43 -25 60 -8 12 13 10 14 -13 10 -14 -3 -24 -1
-21 3 3 5 -2 9 -10 9 -9 0 -16 -6 -16 -14z"/>
<path d="M1508 1403 c6 -2 18 -2 25 0 6 3 1 5 -13 5 -14 0 -19 -2 -12 -5z"/>
<path d="M1759 1367 c-15 -11 -14 -16 2 -54 10 -24 20 -43 23 -43 3 0 -2 17
-11 37 -11 28 -12 42 -4 55 13 21 12 22 -10 5z"/>
<path d="M2233 1347 c23 -25 38 -27 18 -3 -9 11 -9 15 1 19 7 3 1 6 -14 6
l-27 1 22 -23z"/>
<path d="M1543 1320 c0 -25 2 -35 4 -22 2 12 2 32 0 45 -2 12 -4 2 -4 -23z"/>
<path d="M2140 1340 c6 -11 13 -20 16 -20 2 0 0 9 -6 20 -6 11 -13 20 -16 20
-2 0 0 -9 6 -20z"/>
<path d="M633 1323 c11 -3 16 -11 13 -19 -3 -9 -1 -12 4 -9 19 12 10 35 -12
34 -19 -1 -19 -2 -5 -6z"/>
<path d="M342 1245 c-23 -40 -61 -94 -84 -120 l-43 -48 53 6 c29 3 60 11 70
17 16 11 16 11 -1 6 -10 -3 -37 -9 -60 -12 l-42 -7 31 34 c35 38 83 108 108
157 32 63 11 41 -32 -33z"/>
<path d="M1613 1240 c0 -41 2 -58 4 -37 2 20 2 54 0 75 -2 20 -4 3 -4 -38z"/>
<path d="M514 1273 c9 -18 18 -33 20 -33 9 0 -8 41 -22 52 -13 11 -12 8 2 -19z"/>
<path d="M645 1260 c-3 -5 -1 -10 4 -10 6 0 11 5 11 10 0 6 -2 10 -4 10 -3 0
-8 -4 -11 -10z"/>
<path d="M1794 1239 c0 -10 4 -19 8 -19 4 0 8 6 8 14 0 8 -4 17 -8 20 -4 2 -8
-4 -8 -15z"/>
<path d="M1532 1220 c0 -14 2 -19 5 -12 2 6 2 18 0 25 -3 6 -5 1 -5 -13z"/>
<path d="M541 1221 c-9 -6 -10 -11 -2 -15 6 -4 11 -3 11 3 0 5 8 12 18 14 12
3 13 5 2 6 -8 0 -21 -3 -29 -8z"/>
<path d="M490 1199 c-22 -18 -22 -19 -3 -10 12 6 25 16 28 21 9 15 3 12 -25
-11z"/>
<path d="M2211 1204 c0 -11 3 -14 6 -6 3 7 2 16 -1 19 -3 4 -6 -2 -5 -13z"/>
<path d="M1633 1195 c-9 -24 0 -25 27 -5 l25 20 -23 0 c-12 0 -25 -7 -29 -15z"/>
<path d="M2158 1183 c7 -3 16 -2 19 1 4 3 -2 6 -13 5 -11 0 -14 -3 -6 -6z"/>
<path d="M2109 1143 c-13 -17 -13 -17 6 -3 11 8 22 16 24 17 2 2 0 3 -6 3 -6
0 -17 -8 -24 -17z"/>
<path d="M1622 1125 c0 -16 2 -22 5 -12 2 9 2 23 0 30 -3 6 -5 -1 -5 -18z"/>
<path d="M515 1130 c-3 -5 -1 -10 4 -10 6 0 11 5 11 10 0 6 -2 10 -4 10 -3 0
-8 -4 -11 -10z"/>
<path d="M1235 1120 c-3 -6 1 -7 9 -4 18 7 21 14 7 14 -6 0 -13 -4 -16 -10z"/>
<path d="M1310 1123 c5 -2 10 -11 10 -18 0 -7 -5 -16 -10 -18 -6 -3 -5 -4 2
-3 7 2 13 11 13 21 0 10 -6 19 -13 21 -7 1 -8 0 -2 -3z"/>
<path d="M2200 1120 c-8 -5 -10 -10 -5 -10 6 0 17 5 25 10 8 5 11 10 5 10 -5
0 -17 -5 -25 -10z"/>
<path d="M65 1081 c22 -23 49 -47 60 -53 23 -12 18 -7 -50 53 l-50 43 40 -43z"/>
<path d="M431 1104 c0 -11 3 -14 6 -6 3 7 2 16 -1 19 -3 4 -6 -2 -5 -13z"/>
<path d="M512 1090 c0 -14 2 -19 5 -12 2 6 2 18 0 25 -3 6 -5 1 -5 -13z"/>
<path d="M1183 1093 c-13 -2 -23 -8 -23 -13 0 -6 12 -5 27 1 15 6 44 8 63 5
26 -4 30 -3 15 4 -21 9 -45 10 -82 3z"/>
<path d="M1632 1070 c0 -14 2 -19 5 -12 2 6 2 18 0 25 -3 6 -5 1 -5 -13z"/>
<path d="M1340 1069 c0 -5 5 -7 10 -4 6 3 10 8 10 11 0 2 -4 4 -10 4 -5 0 -10
-5 -10 -11z"/>
<path d="M322 1056 c-35 -6 -63 -14 -62 -18 0 -5 0 -12 0 -17 0 -14 -57 -33
-79 -26 -12 3 -21 10 -21 15 0 12 -77 -15 -125 -45 -49 -30 -34 -33 24 -4 49
24 111 36 111 22 0 -5 -25 -20 -55 -34 l-55 -26 39 -45 c22 -24 44 -60 49 -79
6 -19 11 -26 11 -17 2 29 -19 72 -51 105 l-30 31 48 23 c71 32 172 69 189 69
9 0 12 -6 8 -17 -5 -16 -4 -16 8 -3 8 8 19 20 26 25 15 12 -45 14 -65 1 -7 -4
-16 -5 -19 -2 -12 12 12 25 58 30 52 6 110 25 74 24 -11 0 -48 -6 -83 -12z"/>
<path d="M2070 1054 c0 -8 5 -12 10 -9 6 4 8 11 5 16 -9 14 -15 11 -15 -7z"/>
<path d="M2020 1041 c0 -5 -12 -24 -27 -43 -26 -32 -26 -32 -2 -10 14 12 29
19 32 15 4 -3 7 6 7 20 0 15 -2 27 -5 27 -3 0 -5 -4 -5 -9z"/>
<path d="M1641 1024 c0 -11 3 -14 6 -6 3 7 2 16 -1 19 -3 4 -6 -2 -5 -13z"/>
<path d="M1421 978 c-17 -23 -31 -49 -31 -57 0 -10 5 -7 13 8 18 37 35 37 40
-1 2 -18 3 -10 2 18 -2 29 2 57 8 63 6 6 8 11 5 11 -4 0 -20 -19 -37 -42z"/>
<path d="M2217 989 c-4 -16 -3 -18 9 -8 7 6 11 15 8 20 -8 13 -11 11 -17 -12z"/>
<path d="M1655 980 c9 -30 34 -80 40 -80 4 0 -35 92 -43 100 -2 3 -1 -6 3 -20z"/>
<path d="M730 955 c19 -19 36 -35 39 -35 3 0 -10 16 -29 35 -19 19 -36 35 -39
35 -3 0 10 -16 29 -35z"/>
<path d="M2110 986 c0 -2 7 -7 16 -10 8 -3 12 -2 9 4 -6 10 -25 14 -25 6z"/>
<path d="M270 972 c-45 -14 -68 -80 -38 -110 9 -9 8 -16 -5 -30 -9 -10 -17
-28 -17 -40 0 -28 34 -62 60 -62 26 0 77 26 82 41 6 17 58 0 58 -20 0 -9 -7
-36 -16 -61 -8 -24 -13 -52 -11 -62 4 -14 -1 -18 -18 -18 -36 0 -56 -11 -65
-36 -5 -12 -19 -24 -31 -26 -13 -2 -25 -13 -30 -28 l-9 -25 16 22 c23 32 54
30 54 -2 0 -14 5 -25 11 -25 7 0 9 8 4 23 -10 34 -8 59 9 75 19 20 46 8 47
-20 1 -20 2 -19 9 6 15 49 82 106 126 106 14 0 16 -7 11 -42 -2 -24 -8 -52
-12 -63 -4 -13 -1 -12 9 5 8 14 15 47 16 73 0 45 -2 48 -21 42 -14 -5 -25 -2
-30 6 -6 10 -9 11 -9 2 0 -13 -72 -84 -78 -78 -7 7 20 92 45 142 17 34 23 58
18 70 -5 10 -7 21 -7 25 3 13 -46 21 -83 14 -19 -4 -35 -3 -35 1 0 16 18 35
27 30 6 -4 3 9 -6 27 -9 19 -18 32 -20 30 -1 -1 -13 1 -25 5 -11 5 -28 6 -36
3z m53 -33 c14 -23 1 -67 -23 -74 -54 -17 -87 31 -49 71 25 27 56 28 72 3z
m117 -94 c17 -20 3 -54 -26 -61 -29 -7 -54 10 -54 38 0 10 -4 16 -10 13 -11
-7 -14 8 -3 18 12 13 81 7 93 -8z m-112 -20 c17 -37 1 -71 -38 -79 -35 -6 -54
0 -44 15 3 5 0 8 -8 7 -8 -2 -12 5 -10 17 5 36 11 45 34 55 38 15 54 11 66
-15z"/>
<path d="M267 879 c7 -7 15 -10 18 -7 3 3 -2 9 -12 12 -14 6 -15 5 -6 -5z"/>
<path d="M350 949 c0 -5 5 -7 10 -4 6 3 10 8 10 11 0 2 -4 4 -10 4 -5 0 -10
-5 -10 -11z"/>
<path d="M1925 918 l-40 -43 43 40 c23 21 42 40 42 42 0 8 -9 0 -45 -39z"/>
<path d="M491 931 c0 -14 -9 -34 -18 -45 -17 -20 -17 -20 6 0 15 14 21 29 18
45 l-4 24 -2 -24z"/>
<path d="M2100 930 c0 -5 7 -10 15 -10 8 0 15 5 15 10 0 6 -7 10 -15 10 -8 0
-15 -4 -15 -10z"/>
<path d="M22 907 c-12 -13 -22 -29 -22 -37 0 -8 11 1 25 20 14 19 25 35 25 37
0 7 -8 2 -28 -20z"/>
<path d="M1517 919 c7 -7 15 -10 18 -7 3 3 -2 9 -12 12 -14 6 -15 5 -6 -5z"/>
<path d="M1939 893 l-24 -28 28 24 c25 23 32 31 24 31 -2 0 -14 -12 -28 -27z"/>
<path d="M390 900 c-9 -6 -10 -10 -3 -10 6 0 15 5 18 10 8 12 4 12 -15 0z"/>
<path d="M1330 889 c-22 -18 -22 -19 -3 -10 12 6 25 16 28 21 9 15 3 12 -25
-11z"/>
<path d="M2232 894 c-12 -8 -35 -22 -50 -30 l-27 -14 25 0 c14 1 38 12 55 25
33 27 31 43 -3 19z"/>
<path d="M2080 885 c-20 -24 -6 -28 15 -5 10 11 13 20 8 20 -6 0 -16 -7 -23
-15z"/>
<path d="M1704 883 c5 -9 -2 -13 -21 -14 l-28 -1 25 -7 c31 -10 49 4 31 22
-11 10 -13 10 -7 0z"/>
<path d="M1286 871 c-4 -6 -27 -17 -52 -24 -45 -13 -45 -13 -20 -25 21 -9 24
-9 19 3 -3 10 1 15 13 15 22 1 60 27 52 36 -3 3 -9 1 -12 -5z"/>
<path d="M1859 863 c-13 -16 -12 -17 4 -4 16 13 21 21 13 21 -2 0 -10 -8 -17
-17z"/>
<path d="M1340 860 c-9 -6 -10 -10 -3 -10 6 0 15 5 18 10 8 12 4 12 -15 0z"/>
<path d="M1469 843 l24 -20 -21 -21 c-12 -12 -21 -23 -21 -24 1 -2 -2 -27 -6
-56 -9 -69 -26 -85 -83 -79 l-44 4 -19 -46 c-30 -72 -79 -163 -106 -198 -13
-18 -20 -33 -14 -33 15 0 54 57 97 140 21 41 42 78 47 81 6 4 8 16 5 27 -5 17
-3 18 23 9 20 -8 35 -8 56 2 15 7 29 12 31 12 1 -1 11 8 22 19 11 11 28 20 38
20 9 0 30 8 47 18 25 15 34 16 55 6 14 -7 36 -15 50 -18 14 -3 3 5 -24 17 -31
15 -45 26 -38 31 35 22 -10 89 -56 84 -19 -2 -30 3 -37 17 -6 11 -19 22 -30
24 -18 3 -17 1 4 -16z m101 -47 c19 -24 7 -59 -29 -83 -25 -17 -38 -20 -51
-13 -25 14 -30 13 -24 -5 4 -8 1 -15 -6 -15 -11 0 -9 41 6 91 9 33 82 51 104
25z"/>
<path d="M650 826 c18 -23 99 -76 114 -76 6 1 -2 8 -19 17 -16 9 -48 30 -70
47 -22 17 -33 22 -25 12z"/>
<path d="M988 833 c7 -3 16 -2 19 1 4 3 -2 6 -13 5 -11 0 -14 -3 -6 -6z"/>
<path d="M2200 831 c0 -8 52 -23 59 -16 1 2 0 8 -4 14 -8 13 -55 15 -55 2z"/>
<path d="M1282 754 c-4 -104 -69 -253 -145 -331 -24 -25 -39 -33 -67 -33 -39
0 -80 -32 -80 -63 0 -24 -17 -21 -23 3 -4 14 -14 20 -32 20 -15 0 -34 8 -41
17 -10 15 -17 16 -43 7 -24 -10 -31 -9 -35 2 -7 19 -40 18 -79 -3 l-32 -17 44
-13 c83 -24 87 -25 72 -15 -11 8 -10 12 6 20 25 14 100 -4 129 -29 26 -24 44
-24 44 -1 0 10 11 29 24 41 19 18 32 22 58 18 30 -6 36 -2 78 49 55 67 72 99
105 199 19 54 25 91 22 128 l-3 52 -2 -51z m-479 -396 c-2 -5 -5 -8 -8 -8 -57
0 -60 1 -45 10 17 11 56 9 53 -2z"/>
<path d="M1710 775 c-25 -13 -41 -24 -37 -25 11 0 87 39 87 45 0 7 0 7 -50
-20z"/>
<path d="M2080 785 c0 -29 31 -139 42 -150 10 -10 9 -5 -8 56 -4 15 -3 19 6
14 7 -4 5 4 -5 18 -9 14 -15 36 -13 48 2 12 -3 24 -9 26 -7 3 -13 -3 -13 -12z"/>
<path d="M491 774 c0 -11 3 -14 6 -6 3 7 2 16 -1 19 -3 4 -6 -2 -5 -13z"/>
<path d="M1431 768 c-1 -13 -9 -18 -30 -18 -27 0 -90 -39 -64 -40 6 0 15 5 18
10 3 6 19 10 34 10 31 0 56 22 48 42 -4 8 -6 7 -6 -4z"/>
<path d="M133 733 c-7 -16 -26 -36 -42 -45 -28 -16 -30 -16 -36 1 -7 22 -55
69 -55 54 0 -6 7 -17 16 -24 31 -25 36 -58 15 -104 -19 -43 -19 -43 1 -48 15
-4 17 -3 8 8 -17 20 18 87 55 105 28 13 75 80 57 80 -4 0 -13 -12 -19 -27z"/>
<path d="M481 734 c0 -11 3 -14 6 -6 3 7 2 16 -1 19 -3 4 -6 -2 -5 -13z"/>
<path d="M2140 740 c20 -13 33 -13 25 0 -3 6 -14 10 -23 10 -15 0 -15 -2 -2
-10z"/>
<path d="M818 733 c7 -3 16 -2 19 1 4 3 -2 6 -13 5 -11 0 -14 -3 -6 -6z"/>
<path d="M893 723 c15 -2 39 -2 55 0 15 2 2 4 -28 4 -30 0 -43 -2 -27 -4z"/>
<path d="M170 701 c0 -5 14 -14 31 -21 39 -16 53 -48 31 -73 -12 -14 -17 -15
-24 -5 -6 9 -8 7 -6 -7 2 -12 -2 -19 -10 -17 -8 1 -11 -2 -8 -7 4 -5 -3 -12
-14 -16 -11 -4 -18 -11 -14 -16 8 -13 24 -1 68 48 31 35 36 45 27 61 -11 21
-81 67 -81 53z"/>
<path d="M2150 690 c0 -5 5 -10 10 -10 6 0 10 5 10 10 0 6 -4 10 -10 10 -5 0
-10 -4 -10 -10z"/>
<path d="M2246 692 c-4 -7 -12 -9 -18 -6 -6 4 -8 2 -5 -3 4 -6 0 -13 -8 -17
-15 -5 -21 -26 -7 -26 15 1 54 40 50 52 -3 9 -6 9 -12 0z"/>
<path d="M605 633 c57 -57 133 -90 223 -98 40 -3 50 -2 32 4 -14 5 -39 9 -57
10 -55 2 -140 40 -195 88 l-53 46 50 -50z"/>
<path d="M1700 666 c0 -3 9 -10 20 -16 11 -6 20 -8 20 -6 0 3 -9 10 -20 16
-11 6 -20 8 -20 6z"/>
<path d="M2176 643 c-4 -9 -3 -20 1 -24 15 -13 83 -38 83 -30 0 10 -61 37 -73
33 -5 -1 -6 7 -2 18 8 24 0 27 -9 3z"/>
<path d="M1574 638 c8 -26 -27 -50 -68 -47 -45 4 -56 -6 -16 -15 20 -3 42 0
60 9 37 19 44 31 30 52 -10 15 -11 15 -6 1z"/>
<path d="M92 635 c4 -4 3 -17 -3 -29 -9 -20 -9 -20 4 -3 11 14 16 15 21 5 3
-7 5 -4 3 6 -1 11 -9 21 -17 24 -8 3 -12 1 -8 -3z"/>
<path d="M1757 629 c7 -7 15 -10 18 -7 3 3 -2 9 -12 12 -14 6 -15 5 -6 -5z"/>
<path d="M1080 609 c-22 -18 -22 -19 -3 -10 12 6 25 16 28 21 9 15 3 12 -25
-11z"/>
<path d="M1894 587 c21 -26 40 -47 43 -47 7 0 -56 78 -70 87 -6 4 6 -14 27
-40z"/>
<path d="M2130 598 c0 -7 9 -26 20 -43 11 -16 20 -25 20 -20 -1 6 -7 18 -15
28 -7 11 -11 25 -8 33 3 8 0 14 -6 14 -6 0 -11 -6 -11 -12z"/>
<path d="M1857 551 c17 -20 48 -63 67 -95 38 -63 45 -67 22 -11 -8 18 -12 35
-10 38 10 9 12 47 3 47 -5 0 -9 -11 -9 -25 0 -24 -4 -22 -52 28 -29 29 -39 37
-21 18z"/>
<path d="M1319 578 c-5 -18 -6 -38 -1 -34 7 8 12 36 6 36 -2 0 -4 -1 -5 -2z"/>
<path d="M85 559 c-5 -5 -21 -18 -35 -30 l-25 -20 34 16 c30 15 35 15 49 2 13
-14 13 -17 -1 -31 -8 -9 -20 -16 -26 -16 -18 0 -61 -54 -61 -76 0 -21 28 -54
46 -54 4 0 -2 7 -14 16 -12 8 -22 25 -22 38 0 37 34 59 98 64 48 3 60 1 76
-17 11 -12 17 -22 15 -24 -2 -1 -17 -10 -34 -19 -16 -9 -31 -22 -34 -30 -3
-10 -1 -11 11 -1 8 7 18 10 21 6 4 -3 7 -1 7 6 0 14 41 31 55 23 5 -3 18 -7
27 -7 29 -2 58 -36 58 -67 0 -25 -3 -28 -32 -28 -26 0 -30 3 -18 10 11 7 4 9
-25 5 -22 -3 -50 -7 -62 -8 -12 -2 -26 -7 -30 -11 -5 -5 11 -6 34 -2 97 15
191 -32 164 -83 -10 -17 -18 -19 -63 -14 -33 4 -49 3 -45 -4 3 -5 19 -8 36 -5
56 8 94 -64 53 -101 -23 -21 -72 -23 -72 -2 0 18 -45 49 -62 42 -8 -3 -2 -9
13 -15 32 -13 43 -37 29 -62 -22 -41 -87 -53 -129 -23 -18 12 -23 13 -19 2 6
-18 63 -37 95 -31 13 2 37 17 53 33 31 32 50 37 50 14 0 -8 -4 -15 -10 -15 -5
0 -2 -9 7 -20 10 -11 22 -20 27 -20 6 0 5 5 -2 12 -21 21 -13 52 18 70 32 18
39 52 19 89 -8 16 -7 25 4 37 13 16 32 71 20 59 -12 -12 -47 39 -44 65 4 40
-15 67 -62 87 -23 10 -51 28 -61 40 -12 13 -31 21 -51 21 -27 0 -34 5 -37 25
-3 13 0 26 6 29 6 2 1 5 -11 5 -12 1 -23 7 -25 15 -2 8 -7 10 -13 5z"/>
<path d="M988 564 c-3 -3 -28 -9 -55 -14 -42 -7 -43 -8 -13 -8 31 -1 111 25
84 27 -6 1 -13 -2 -16 -5z"/>
<path d="M463 518 c-11 -13 -24 -34 -28 -48 -6 -22 -4 -21 14 7 26 41 57 59
77 42 23 -19 17 -42 -18 -72 -32 -26 -32 -27 -6 -18 23 9 27 7 31 -12 3 -16 5
-14 5 8 1 17 4 42 8 58 13 54 -44 78 -83 35z"/>
<path d="M2246 517 c3 -10 9 -15 12 -12 3 3 0 11 -7 18 -10 9 -11 8 -5 -6z"/>
<path d="M266 485 c4 -8 13 -15 21 -15 12 0 12 2 -1 15 -8 8 -17 15 -20 15 -3
0 -3 -7 0 -15z"/>
<path d="M1306 462 c-4 -17 -26 -59 -48 -93 -32 -47 -45 -59 -60 -56 -14 4
-18 2 -14 -10 23 -60 6 -116 -41 -134 -35 -13 -55 -5 -77 32 -12 20 -22 27
-28 21 -7 -7 -22 -2 -45 14 -20 13 -40 24 -45 24 -5 0 -6 4 -3 10 3 6 -3 10
-14 10 -31 0 -26 -7 22 -31 23 -12 49 -28 58 -36 9 -7 20 -13 25 -11 5 1 22
-10 37 -26 22 -22 34 -27 55 -22 42 10 84 62 81 99 -2 24 5 40 30 66 41 44 83
126 79 154 -3 18 -5 16 -12 -11z"/>
<path d="M240 470 c0 -5 5 -10 11 -10 5 0 7 5 4 10 -3 6 -8 10 -11 10 -2 0 -4
-4 -4 -10z"/>
<path d="M106 431 c-4 -6 -2 -11 3 -11 6 0 11 -8 12 -17 0 -10 3 -13 5 -6 8
18 -11 49 -20 34z"/>
<path d="M1311 400 c-1 -8 -8 -73 -16 -145 -18 -153 -27 -264 -21 -250 10 20
48 363 43 386 -2 13 -5 17 -6 9z"/>
<path d="M500 380 c-8 -5 -27 -10 -41 -10 -32 0 -69 -38 -69 -71 1 -22 2 -21
15 8 19 44 49 59 81 38 41 -27 31 -73 -25 -110 -19 -14 -31 -25 -25 -25 5 0
19 7 30 15 42 32 104 7 104 -43 0 -51 -48 -102 -95 -102 -9 0 -14 -4 -11 -8 6
-11 -4 -25 -34 -45 -13 -9 -19 -17 -11 -17 7 0 25 13 41 28 16 16 41 34 57 41
60 25 86 124 41 155 -12 9 -31 16 -41 16 -14 0 -16 4 -7 19 15 28 12 67 -5 81
-13 11 -13 14 2 26 21 15 15 18 -7 4z"/>
<path d="M276 368 c3 -5 10 -6 15 -3 13 9 11 12 -6 12 -8 0 -12 -4 -9 -9z"/>
<path d="M2120 376 c0 -2 7 -7 16 -10 8 -3 12 -2 9 4 -6 10 -25 14 -25 6z"/>
<path d="M190 361 c0 -6 4 -13 10 -16 6 -3 7 1 4 9 -7 18 -14 21 -14 7z"/>
<path d="M2171 354 c0 -11 3 -14 6 -6 3 7 2 16 -1 19 -3 4 -6 -2 -5 -13z"/>
<path d="M83 337 c0 -7 12 -13 26 -14 14 -1 19 1 11 4 -8 3 -20 10 -26 14 -6
5 -11 4 -11 -4z"/>
<path d="M602 317 c-12 -13 -22 -30 -22 -38 0 -9 5 -7 12 6 24 44 56 56 82 29
9 -8 16 -12 16 -7 0 16 -24 33 -45 33 -12 0 -31 -10 -43 -23z"/>
<path d="M543 323 c9 -2 23 -2 30 0 6 3 -1 5 -18 5 -16 0 -22 -2 -12 -5z"/>
<path d="M2071 314 c0 -11 3 -14 6 -6 3 7 2 16 -1 19 -3 4 -6 -2 -5 -13z"/>
<path d="M850 312 c0 -5 12 -14 26 -20 14 -7 23 -8 19 -2 -9 15 -45 32 -45 22z"/>
<path d="M2196 307 c3 -10 9 -15 12 -12 3 3 0 11 -7 18 -10 9 -11 8 -5 -6z"/>
<path d="M784 282 c24 -28 11 -64 -34 -87 -39 -20 -39 -26 1 -12 19 7 38 25
47 45 15 31 15 33 -8 55 l-24 22 18 -23z"/>
<path d="M260 268 c0 -4 4 -8 9 -8 6 0 12 4 15 8 3 5 -1 9 -9 9 -8 0 -15 -4
-15 -9z"/>
<path d="M667 253 c-11 -13 -17 -26 -14 -29 2 -3 12 7 21 22 23 33 17 39 -7 7z"/>
<path d="M96 212 l-30 -37 37 34 c38 36 42 42 30 40 -5 0 -21 -17 -37 -37z"/>
<path d="M210 197 c4 -41 5 -41 8 -8 2 18 0 37 -5 42 -5 5 -6 -11 -3 -34z"/>
<path d="M2216 215 c-9 -9 -16 -21 -16 -28 0 -6 9 -1 21 12 24 26 20 40 -5 16z"/>
<path d="M398 203 c7 -3 16 -2 19 1 4 3 -2 6 -13 5 -11 0 -14 -3 -6 -6z"/>
<path d="M810 203 c86 -30 120 -64 120 -118 0 -22 -4 -25 -38 -25 -20 0 -54 9
-74 19 l-36 20 2 -32 c1 -30 -1 -32 -36 -32 -20 0 -34 -3 -31 -7 7 -12 58 -9
71 4 7 7 12 21 12 31 0 16 3 17 14 7 8 -6 40 -15 70 -19 l56 -8 0 36 c0 67
-65 133 -127 130 -14 0 -15 -2 -3 -6z"/>
<path d="M396 155 c9 -22 25 -49 36 -60 20 -19 20 -18 0 9 -12 16 -22 34 -22
40 0 7 -7 21 -15 32 -13 16 -12 13 1 -21z"/>
<path d="M2130 181 c8 -4 29 -11 45 -15 19 -4 25 -3 15 3 -8 4 -28 11 -45 15
-19 4 -25 3 -15 -3z"/>
<path d="M0 163 c0 -4 17 -15 39 -24 64 -27 58 -83 -12 -113 -36 -16 -22 -21
17 -6 57 21 71 94 23 124 -29 19 -67 29 -67 19z"/>
<path d="M280 155 c0 -8 8 -15 18 -14 10 0 12 3 4 6 -6 2 -10 9 -6 14 3 5 0 9
-5 9 -6 0 -11 -7 -11 -15z"/>
<path d="M1937 140 c-16 -10 -24 -20 -19 -24 5 -3 20 6 32 19 27 29 25 30 -13
5z"/>
<path d="M1363 110 c0 -25 2 -35 4 -22 2 12 2 32 0 45 -2 12 -4 2 -4 -23z"/>
<path d="M158 123 c6 -2 18 -2 25 0 6 3 1 5 -13 5 -14 0 -19 -2 -12 -5z"/>
<path d="M1710 90 c-6 -23 -16 -53 -21 -67 -5 -15 -5 -22 0 -18 12 7 44 115
37 122 -2 3 -10 -14 -16 -37z"/>
<path d="M691 91 c0 -14 -11 -35 -23 -48 -12 -13 -16 -23 -10 -23 19 0 44 47
39 72 -4 23 -4 23 -6 -1z"/>
<path d="M562 80 c0 -14 2 -19 5 -12 2 6 2 18 0 25 -3 6 -5 1 -5 -13z"/>
<path d="M2096 87 c-35 -25 -16 -43 39 -36 l50 6 -50 2 -50 2 24 19 c26 22 15
28 -13 7z"/>
<path d="M1613 50 c-6 -25 -10 -46 -8 -48 8 -9 26 42 23 66 -3 23 -5 20 -15
-18z"/>
<path d="M1051 44 c0 -11 3 -14 6 -6 3 7 2 16 -1 19 -3 4 -6 -2 -5 -13z"/>
<path d="M1107 53 c-4 -3 -7 -18 -6 -32 1 -26 1 -25 10 3 9 31 7 41 -4 29z"/>
<path d="M1352 30 c0 -19 2 -27 5 -17 2 9 2 25 0 35 -3 9 -5 1 -5 -18z"/>
<path d="M2205 26 c21 -32 27 -33 16 -4 -4 12 -14 24 -20 26 -8 3 -7 -5 4 -22z"/>
<path d="M590 20 c8 -5 24 -10 34 -10 26 0 18 6 -19 14 -22 5 -26 4 -15 -4z"/>
</g>
</svg>
